{
  "accessors": [
    {
      "bufferView": 2,
      "componentType": 5126,
      "count": 48246,
      "max": [
        3.7000000476837158,
        -0.13605980575084686,
        -0.37999999523162842
      ],
      "min": [
        -1.5604699850082397,
        -6.7800002098083496,
        -1.5800000429153442
      ],
      "type": "VEC3"
    },
    {
      "bufferView": 2,
      "byteOffset": 578952,
      "componentType": 5126,
      "count": 48246,
      "max": [
        0.99993044137954712,
        0.99890613555908203,
        0.99999946355819702
      ],
      "min": [
        -0.99193429946899414,
        -0.9999241828918457,
        -0.97932541370391846
      ],
      "type": "VEC3"
    },
    {
      "bufferView": 3,
      "componentType": 5126,
      "count": 48246,
      "max": [
        1,
        0.99999994039535522,
        0.99999970197677612,
        1
      ],
      "min": [
        -1,
        -0.9999997615814209,
        -0.99999982118606567,
        1
      ],
      "type": "VEC4"
    },
    {
      "bufferView": 1,
      "componentType": 5126,
      "count": 48246,
      "max": [
        0.99934887886047363,
        0.99869787693023682
      ],
      "min": [
        0.0006510416860692203,
        0.0013020830228924751
      ],
      "type": "VEC2"
    },
    {
      "bufferView": 0,
      "componentType": 5125,
      "count": 48246,
      "max": [
        48245
      ],
      "min": [
        0
      ],
      "type": "SCALAR"
    },
    {
      "bufferView": 2,
      "byteOffset": 1157904,
      "componentType": 5126,
      "count": 20154,
      "max": [
        3.7799999713897705,
        -2.059999942779541,
        -0.62000000476837158
      ],
      "min": [
        -0.18964840471744537,
        -6.7668981552124023,
        -1.5800000429153442
      ],
      "type": "VEC3"
    },
    {
      "bufferView": 2,
      "byteOffset": 1399752,
      "componentType": 5126,
      "count": 20154,
      "max": [
        0.99990361928939819,
        0.99025189876556396,
        0.99999982118606567
      ],
      "min": [
        -0.99776029586791992,
        -0.99411219358444214,
        -0.95188277959823608
      ],
      "type": "VEC3"
    },
    {
      "bufferView": 3,
      "byteOffset": 771936,
      "componentType": 5126,
      "count": 20154,
      "max": [
        1,
        0.99999892711639404,
        1,
        1
      ],
      "min": [
        -1,
        -1,
        -0.99951654672622681,
        1
      ],
      "type": "VEC4"
    },
    {
      "bufferView": 1,
      "byteOffset": 385968,
      "componentType": 5126,
      "count": 20154,
      "max": [
        0.99934887886047363,
        0.4205729067325592
      ],
      "min": [
        0.0006510416860692203,
        0.0013020830228924751
      ],
      "type": "VEC2"
    },
    {
      "bufferView": 0,
      "byteOffset": 192984,
      "componentType": 5125,
      "count": 20154,
      "max": [
        20153
      ],
      "min": [
        0
      ],
      "type": "SCALAR"
    }
  ],
  "asset": {
    "extras": {
      "author": "utopiah (https://sketchfab.com/utopiah)",
      "license": "CC-BY-4.0 (http://creativecommons.org/licenses/by/4.0/)",
      "source": "https://sketchfab.com/models/167b086dd7344f7bbae5851d0b5738d9",
      "title": "Quick scan to check update"
    },
    "generator": "Sketchfab-3.18.7",
    "version": "2.0"
  },
  "bufferViews": [
    {
      "buffer": 0,
      "byteLength": 273600,
      "byteOffset": 0,
      "name": "floatBufferViews",
      "target": 34963
    },
    {
      "buffer": 0,
      "byteLength": 547200,
      "byteOffset": 273600,
      "byteStride": 8,
      "name": "floatBufferViews",
      "target": 34962
    },
    {
      "buffer": 0,
      "byteLength": 1641600,
      "byteOffset": 820800,
      "byteStride": 12,
      "name": "floatBufferViews",
      "target": 34962
    },
    {
      "buffer": 0,
      "byteLength": 1094400,
      "byteOffset": 2462400,
      "byteStride": 16,
      "name": "floatBufferViews",
      "target": 34962
    }
  ],
  "buffers": [
    {
      "byteLength": 3556800,
      "uri": "scene.bin"
    }
  ],
  "extensionsUsed": [
    "KHR_materials_unlit"
  ],
  "images": [
    {
      "uri": "textures/atlas_1_baseColor.png"
    },
    {
      "uri": "textures/atlas_0_baseColor.png"
    }
  ],
  "materials": [
    {
      "doubleSided": true,
      "emissiveFactor": [
        0,
        0,
        0
      ],
      "extensions": {
        "KHR_materials_unlit": {}
      },
      "name": "atlas_0",
      "pbrMetallicRoughness": {
        "baseColorFactor": [
          1,
          1,
          1,
          1
        ],
        "baseColorTexture": {
          "index": 1,
          "texCoord": 0
        },
        "metallicFactor": 0,
        "roughnessFactor": 1
      }
    },
    {
      "doubleSided": true,
      "emissiveFactor": [
        0,
        0,
        0
      ],
      "extensions": {
        "KHR_materials_unlit": {}
      },
      "name": "atlas_1",
      "pbrMetallicRoughness": {
        "baseColorFactor": [
          1,
          1,
          1,
          1
        ],
        "baseColorTexture": {
          "index": 0,
          "texCoord": 0
        },
        "metallicFactor": 0,
        "roughnessFactor": 1
      }
    }
  ],
  "meshes": [
    {
      "primitives": [
        {
          "attributes": {
            "NORMAL": 1,
            "POSITION": 0,
            "TANGENT": 2,
            "TEXCOORD_0": 3
          },
          "indices": 4,
          "material": 0,
          "mode": 4
        }
      ]
    },
    {
      "primitives": [
        {
          "attributes": {
            "NORMAL": 6,
            "POSITION": 5,
            "TANGENT": 7,
            "TEXCOORD_0": 8
          },
          "indices": 9,
          "material": 1,
          "mode": 4
        }
      ]
    }
  ],
  "nodes": [
    {
      "children": [
        1
      ],
      "name": "RootNode (gltf orientation matrix)",
      "rotation": [
        -0.70710678118654746,
        -0,
        -0,
        0.70710678118654757
      ]
    },
    {
      "children": [
        2
      ],
      "name": "RootNode (model correction matrix)"
    },
    {
      "children": [
        3,
        4
      ],
      "name": "scan_20170804-123052.obj.cleaner.materialmerger.gles"
    },
    {
      "mesh": 0,
      "name": ""
    },
    {
      "mesh": 1,
      "name": ""
    }
  ],
  "samplers": [
    {
      "magFilter": 9729,
      "minFilter": 9987,
      "wrapS": 10497,
      "wrapT": 10497
    }
  ],
  "scene": 0,
  "scenes": [
    {
      "name": "OSG_Scene",
      "nodes": [
        0
      ]
    }
  ],
  "textures": [
    {
      "sampler": 0,
      "source": 0
    },
    {
      "sampler": 0,
      "source": 1
    }
  ]
}

