{
  "accessors": [
    {
      "bufferView": 2,
      "componentType": 5126,
      "count": 65532,
      "max": [
        1.5851279497146606,
        1.9270330667495728,
        1.8355749845504761
      ],
      "min": [
        0,
        0,
        0
      ],
      "type": "VEC3"
    },
    {
      "bufferView": 2,
      "byteOffset": 786384,
      "componentType": 5126,
      "count": 65532,
      "max": [
        0.99996668100357056,
        0.99997627735137939,
        0.99991399049758911
      ],
      "min": [
        -0.99997490644454956,
        -0.99983149766921997,
        -0.99998122453689575
      ],
      "type": "VEC3"
    },
    {
      "bufferView": 3,
      "componentType": 5126,
      "count": 65532,
      "max": [
        0.99999731779098511,
        0.99999725818634033,
        0.99996101856231689,
        1
      ],
      "min": [
        -0.99974912405014038,
        -0.99990826845169067,
        -0.99977713823318481,
        -1
      ],
      "type": "VEC4"
    },
    {
      "bufferView": 1,
      "componentType": 5126,
      "count": 65532,
      "max": [
        0.99419599771499634,
        1.0371129512786865
      ],
      "min": [
        -0.0022020000033080578,
        0.003464000066742301
      ],
      "type": "VEC2"
    },
    {
      "bufferView": 0,
      "componentType": 5125,
      "count": 314973,
      "max": [
        65531
      ],
      "min": [
        0
      ],
      "type": "SCALAR"
    },
    {
      "bufferView": 2,
      "byteOffset": 1572768,
      "componentType": 5126,
      "count": 65532,
      "max": [
        1.6588690280914307,
        1.3998380899429321,
        2.0044620037078857
      ],
      "min": [
        0.38593798875808716,
        0.043404102325439453,
        0.18483901023864746
      ],
      "type": "VEC3"
    },
    {
      "bufferView": 2,
      "byteOffset": 2359152,
      "componentType": 5126,
      "count": 65532,
      "max": [
        0.99995988607406616,
        0.9999699592590332,
        0.999927818775177
      ],
      "min": [
        -0.99997323751449585,
        -0.99990248680114746,
        -0.99998736381530762
      ],
      "type": "VEC3"
    },
    {
      "bufferView": 3,
      "byteOffset": 1048512,
      "componentType": 5126,
      "count": 65532,
      "max": [
        0.99996751546859741,
        0.99998694658279419,
        0.99999123811721802,
        1
      ],
      "min": [
        -0.99995040893554688,
        -0.99987965822219849,
        -0.9999767541885376,
        -1
      ],
      "type": "VEC4"
    },
    {
      "bufferView": 1,
      "byteOffset": 524256,
      "componentType": 5126,
      "count": 65532,
      "max": [
        0.98783499002456665,
        0.99957400560379028
      ],
      "min": [
        0.00051799998618662357,
        0.0035500000230967999
      ],
      "type": "VEC2"
    },
    {
      "bufferView": 0,
      "byteOffset": 1259892,
      "componentType": 5125,
      "count": 319014,
      "max": [
        65531
      ],
      "min": [
        0
      ],
      "type": "SCALAR"
    },
    {
      "bufferView": 2,
      "byteOffset": 3145536,
      "componentType": 5126,
      "count": 65532,
      "max": [
        1.6631430387496948,
        1.4117341041564941,
        1.9754660129547119
      ],
      "min": [
        0.5082930326461792,
        0.14745306968688965,
        0.3185420036315918
      ],
      "type": "VEC3"
    },
    {
      "bufferView": 2,
      "byteOffset": 3931920,
      "componentType": 5126,
      "count": 65532,
      "max": [
        0.99998420476913452,
        0.99998807907104492,
        0.99983590841293335
      ],
      "min": [
        -0.9999123215675354,
        -0.99999845027923584,
        -0.99998968839645386
      ],
      "type": "VEC3"
    },
    {
      "bufferView": 3,
      "byteOffset": 2097024,
      "componentType": 5126,
      "count": 65532,
      "max": [
        0.99997574090957642,
        0.9999232292175293,
        0.99988597631454468,
        1
      ],
      "min": [
        -0.99995952844619751,
        -0.9993598461151123,
        -0.99982267618179321,
        -1
      ],
      "type": "VEC4"
    },
    {
      "bufferView": 1,
      "byteOffset": 1048512,
      "componentType": 5126,
      "count": 65532,
      "max": [
        0.99271702766418457,
        0.99958902597427368
      ],
      "min": [
        0.0010570000158622861,
        0.0033519999124109745
      ],
      "type": "VEC2"
    },
    {
      "bufferView": 0,
      "byteOffset": 2535948,
      "componentType": 5125,
      "count": 315510,
      "max": [
        65531
      ],
      "min": [
        0
      ],
      "type": "SCALAR"
    },
    {
      "bufferView": 2,
      "byteOffset": 4718304,
      "componentType": 5126,
      "count": 22310,
      "max": [
        1.6684340238571167,
        1.3852001428604126,
        1.9685159921646118
      ],
      "min": [
        0.74186998605728149,
        0.37639021873474121,
        0.61987197399139404
      ],
      "type": "VEC3"
    },
    {
      "bufferView": 2,
      "byteOffset": 4986024,
      "componentType": 5126,
      "count": 22310,
      "max": [
        0.99999469518661499,
        0.99999105930328369,
        0.99998092651367188
      ],
      "min": [
        -0.99900287389755249,
        -0.99472028017044067,
        -0.9977571964263916
      ],
      "type": "VEC3"
    },
    {
      "bufferView": 3,
      "byteOffset": 3145536,
      "componentType": 5126,
      "count": 22310,
      "max": [
        0.99967408180236816,
        0.99968087673187256,
        0.99961531162261963,
        1
      ],
      "min": [
        -0.99997806549072266,
        -0.98871016502380371,
        -0.99985116720199585,
        -1
      ],
      "type": "VEC4"
    },
    {
      "bufferView": 1,
      "byteOffset": 1572768,
      "componentType": 5126,
      "count": 22310,
      "max": [
        0.99145901203155518,
        0.9891279935836792
      ],
      "min": [
        0.003375000087544322,
        0.0035679999273270369
      ],
      "type": "VEC2"
    },
    {
      "bufferView": 0,
      "byteOffset": 3797988,
      "componentType": 5125,
      "count": 100500,
      "max": [
        22309
      ],
      "min": [
        0
      ],
      "type": "SCALAR"
    }
  ],
  "asset": {
    "extras": {
      "author": "Bruno Armeni (https://sketchfab.com/tristan.armeni)",
      "license": "CC-BY-4.0 (http://creativecommons.org/licenses/by/4.0/)",
      "source": "https://sketchfab.com/models/ba0e39277faa4e8abcaadfddf5fe9804",
      "title": "Aphrodite Crouching"
    },
    "generator": "Sketchfab-3.19.6",
    "version": "2.0"
  },
  "bufferViews": [
    {
      "buffer": 0,
      "byteLength": 4199988,
      "byteOffset": 0,
      "name": "floatBufferViews",
      "target": 34963
    },
    {
      "buffer": 0,
      "byteLength": 1751248,
      "byteOffset": 4199988,
      "byteStride": 8,
      "name": "floatBufferViews",
      "target": 34962
    },
    {
      "buffer": 0,
      "byteLength": 5253744,
      "byteOffset": 5951236,
      "byteStride": 12,
      "name": "floatBufferViews",
      "target": 34962
    },
    {
      "buffer": 0,
      "byteLength": 3502496,
      "byteOffset": 11204980,
      "byteStride": 16,
      "name": "floatBufferViews",
      "target": 34962
    }
  ],
  "buffers": [
    {
      "byteLength": 14707476,
      "uri": "scene.bin"
    }
  ],
  "extensionsRequired": [
    "KHR_materials_pbrSpecularGlossiness"
  ],
  "extensionsUsed": [
    "KHR_materials_pbrSpecularGlossiness"
  ],
  "images": [
    {
      "uri": "textures/venereglithc_emissive.jpg"
    },
    {
      "uri": "textures/venereglithc_occlusion.jpg"
    },
    {
      "uri": "textures/venereglithc_diffuse.jpg"
    },
    {
      "uri": "textures/venereglithc_specularGlossiness.png"
    }
  ],
  "materials": [
    {
      "doubleSided": true,
      "emissiveFactor": [
        0,
        0,
        0
      ],
      "emissiveTexture": {
        "index": 0,
        "texCoord": 0
      },
      "extensions": {
        "KHR_materials_pbrSpecularGlossiness": {
          "diffuseFactor": [
            1,
            1,
            1,
            1
          ],
          "diffuseTexture": {
            "index": 2,
            "texCoord": 0
          },
          "glossinessFactor": 0.1236661585,
          "specularFactor": [
            1,
            1,
            1
          ],
          "specularGlossinessTexture": {
            "index": 3,
            "texCoord": 0
          }
        }
      },
      "name": "venereglithc",
      "occlusionTexture": {
        "index": 1,
        "strength": 1,
        "texCoord": 0
      }
    }
  ],
  "meshes": [
    {
      "primitives": [
        {
          "attributes": {
            "NORMAL": 1,
            "POSITION": 0,
            "TANGENT": 2,
            "TEXCOORD_0": 3
          },
          "indices": 4,
          "material": 0,
          "mode": 4
        }
      ]
    },
    {
      "primitives": [
        {
          "attributes": {
            "NORMAL": 6,
            "POSITION": 5,
            "TANGENT": 7,
            "TEXCOORD_0": 8
          },
          "indices": 9,
          "material": 0,
          "mode": 4
        }
      ]
    },
    {
      "primitives": [
        {
          "attributes": {
            "NORMAL": 11,
            "POSITION": 10,
            "TANGENT": 12,
            "TEXCOORD_0": 13
          },
          "indices": 14,
          "material": 0,
          "mode": 4
        }
      ]
    },
    {
      "primitives": [
        {
          "attributes": {
            "NORMAL": 16,
            "POSITION": 15,
            "TANGENT": 17,
            "TEXCOORD_0": 18
          },
          "indices": 19,
          "material": 0,
          "mode": 4
        }
      ]
    }
  ],
  "nodes": [
    {
      "children": [
        1
      ],
      "name": "RootNode (gltf orientation matrix)",
      "rotation": [
        -0.70710678118654746,
        -0,
        -0,
        0.70710678118654757
      ]
    },
    {
      "children": [
        2
      ],
      "matrix": [
        0.94406569004058838,
        -0.30521991848945618,
        0.12482287734746933,
        0,
        -0.32542023062705994,
        -0.80113303661346436,
        0.50228238105773926,
        0,
        -0.053306851536035538,
        -0.51480746269226074,
        -0.85564690828323364,
        0,
        -0.76185405254364014,
        -4.2353072166442871,
        1.0118569135665894,
        1
      ],
      "name": "RootNode (model correction matrix)"
    },
    {
      "children": [
        3,
        4,
        5,
        6
      ],
      "matrix": [
        1,
        0,
        0,
        0,
        0,
        1,
        0,
        0,
        0,
        0,
        1,
        0,
        -0.55699300765991211,
        -3.3393421173095703,
        -1.0813829898834229,
        1
      ],
      "name": "venereglithc.obj.cleaner.gles"
    },
    {
      "mesh": 0,
      "name": ""
    },
    {
      "mesh": 1,
      "name": ""
    },
    {
      "mesh": 2,
      "name": ""
    },
    {
      "mesh": 3,
      "name": ""
    }
  ],
  "samplers": [
    {
      "magFilter": 9729,
      "minFilter": 9987,
      "wrapS": 10497,
      "wrapT": 10497
    }
  ],
  "scene": 0,
  "scenes": [
    {
      "name": "OSG_Scene",
      "nodes": [
        0
      ]
    }
  ],
  "textures": [
    {
      "sampler": 0,
      "source": 0
    },
    {
      "sampler": 0,
      "source": 1
    },
    {
      "sampler": 0,
      "source": 2
    },
    {
      "sampler": 0,
      "source": 3
    }
  ]
}

